<?xml version="1.0" standalone="no"?>
<!DOCTYPE svg PUBLIC "-//W3C//DTD SVG 20010904//EN"
 "http://www.w3.org/TR/2001/REC-SVG-20010904/DTD/svg10.dtd">
<svg version="1.0" xmlns="http://www.w3.org/2000/svg"
 width="903.000000pt" height="903.000000pt" viewBox="0 0 903.000000 903.000000"
 preserveAspectRatio="xMidYMid meet">
<metadata>
Created by potrace 1.11, written by Peter Selinger 2001-2013
</metadata>
<g transform="translate(0.000000,903.000000) scale(0.100000,-0.100000)"
fill="#000000" stroke="none">
<path d="M0 4515 l0 -4515 4515 0 4515 0 0 4515 0 4515 -4515 0 -4515 0 0
-4515z m3660 2195 l0 -550 -830 0 -830 0 0 -1655 0 -1655 830 0 830 0 0 -555
0 -555 -1380 0 -1380 0 0 2760 0 2760 1380 0 1380 0 0 -550z m4487 -1115 l0
-1635 -1094 0 -1093 0 -2 -1107 -3 -1108 -547 -3 -548 -2 0 2745 0 2745 1643
0 1644 0 0 -1635z"/>
<path d="M5960 5595 l0 -535 560 0 560 0 0 535 0 535 -560 0 -560 0 0 -535z"/>
</g>
</svg>
